<svg width="43" height="15" viewBox="0 0 43 15" fill="none" xmlns="http://www.w3.org/2000/svg">
<g clip-path="url(#clip0)">
<path fill-rule="evenodd" clip-rule="evenodd" d="M0.810181 0.819946C1.0662 0.556501 1.37244 0.347105 1.71082 0.204102C2.04919 0.0610986 2.4128 -0.0125732 2.78015 -0.0125732C3.1475 -0.0125732 3.51111 0.0610986 3.84949 0.204102C4.18786 0.347105 4.49411 0.556501 4.75012 0.819946L13.8801 10.13C14.4044 10.6697 14.6976 11.3926 14.6976 12.145C14.6976 12.8975 14.4044 13.6203 13.8801 14.16C13.6241 14.4235 13.3179 14.6329 12.9795 14.7759C12.6411 14.9189 12.2775 14.9926 11.9102 14.9926C11.5428 14.9926 11.1792 14.9189 10.8408 14.7759C10.5024 14.6329 10.1961 14.4235 9.94006 14.16L0.810181 4.83997C0.286084 4.30216 -0.00732422 3.5809 -0.00732422 2.82996C-0.00732422 2.07901 0.286084 1.35776 0.810181 0.819946V0.819946ZM22.9801 0.819946C22.7241 0.556501 22.4178 0.347105 22.0795 0.204102C21.7411 0.0610986 21.3775 -0.0125732 21.0101 -0.0125732C20.6428 -0.0125732 20.2792 0.0610986 19.9408 0.204102C19.6024 0.347105 19.2962 0.556501 19.0402 0.819946L9.91016 10.13C9.38589 10.6697 9.09265 11.3926 9.09265 12.145C9.09265 12.8975 9.38589 13.6203 9.91016 14.16C10.1662 14.4235 10.4724 14.6329 10.8108 14.7759C11.1492 14.9189 11.5128 14.9926 11.8801 14.9926C12.2475 14.9926 12.6111 14.9189 12.9495 14.7759C13.2878 14.6329 13.5941 14.4235 13.8501 14.16L22.9801 4.83997C23.5042 4.30216 23.7975 3.5809 23.7975 2.82996C23.7975 2.07901 23.5042 1.35776 22.9801 0.819946V0.819946ZM19.0101 0.819946C19.2661 0.556501 19.5724 0.347105 19.9108 0.204102C20.2491 0.0610986 20.6127 -0.0125732 20.9801 -0.0125732C21.3475 -0.0125732 21.7111 0.0610986 22.0494 0.204102C22.3878 0.347105 22.6941 0.556501 22.9501 0.819946L32.0801 10.13C32.6043 10.6697 32.8977 11.3926 32.8977 12.145C32.8977 12.8975 32.6043 13.6203 32.0801 14.16C31.8241 14.4235 31.5178 14.6329 31.1794 14.7759C30.8411 14.9189 30.4775 14.9926 30.1101 14.9926C29.7428 14.9926 29.3791 14.9189 29.0408 14.7759C28.7024 14.6329 28.3962 14.4235 28.1401 14.16L19.0101 4.83997C18.486 4.30216 18.1927 3.5809 18.1927 2.82996C18.1927 2.07901 18.486 1.35776 19.0101 0.819946V0.819946ZM41.1802 0.819946C40.9242 0.556501 40.6178 0.347105 40.2794 0.204102C39.941 0.0610986 39.5774 -0.0125732 39.2101 -0.0125732C38.8427 -0.0125732 38.4791 0.0610986 38.1407 0.204102C37.8024 0.347105 37.4961 0.556501 37.2401 0.819946L28.1001 10.13C27.5802 10.672 27.29 11.394 27.29 12.145C27.29 12.896 27.5802 13.618 28.1001 14.16C28.3571 14.4235 28.6644 14.6329 29.0035 14.7759C29.3427 14.9189 29.707 14.9924 30.0751 14.9924C30.4432 14.9924 30.8075 14.9189 31.1467 14.7759C31.4859 14.6329 31.7931 14.4235 32.0502 14.16L41.1802 4.83997C41.7043 4.30216 41.9976 3.5809 41.9976 2.82996C41.9976 2.07901 41.7043 1.35776 41.1802 0.819946V0.819946Z" fill="white"/>
</g>
<defs>
<clipPath id="clip0">
<rect width="42.03" height="15" fill="white"/>
</clipPath>
</defs>
</svg>
